<mxfile host="app.diagrams.net" modified="2021-12-05T01:22:53.021Z" agent="5.0 (Macintosh; Intel Mac OS X 10_15_7) AppleWebKit/605.1.15 (KHTML, like Gecko) Version/14.1.2 Safari/605.1.15" etag="0-o18umqlvb5kWrfSCay" version="15.9.1" type="github">
  <diagram id="R2lEEEUBdFMjLlhIrx00" name="Page-1">
    <mxGraphModel dx="1186" dy="795" grid="1" gridSize="10" guides="1" tooltips="1" connect="1" arrows="1" fold="1" page="1" pageScale="1" pageWidth="850" pageHeight="1100" math="0" shadow="0" extFonts="Permanent Marker^https://fonts.googleapis.com/css?family=Permanent+Marker">
      <root>
        <mxCell id="0" />
        <mxCell id="1" parent="0" />
        <mxCell id="te-tuym6U4XDY3NzMyAo-2" style="rounded=0;orthogonalLoop=1;jettySize=auto;html=1;exitX=0.25;exitY=1;exitDx=0;exitDy=0;endArrow=oval;endFill=0;endSize=7;" edge="1" parent="1" source="te-tuym6U4XDY3NzMyAo-1">
          <mxGeometry relative="1" as="geometry">
            <mxPoint x="380" y="585" as="targetPoint" />
          </mxGeometry>
        </mxCell>
        <mxCell id="te-tuym6U4XDY3NzMyAo-4" style="edgeStyle=none;rounded=0;orthogonalLoop=1;jettySize=auto;html=1;exitX=0.25;exitY=0;exitDx=0;exitDy=0;endArrow=oval;endFill=1;endSize=7;" edge="1" parent="1" source="te-tuym6U4XDY3NzMyAo-1" target="te-tuym6U4XDY3NzMyAo-5">
          <mxGeometry relative="1" as="geometry">
            <mxPoint x="480" y="490" as="targetPoint" />
          </mxGeometry>
        </mxCell>
        <mxCell id="te-tuym6U4XDY3NzMyAo-31" value="" style="edgeStyle=elbowEdgeStyle;rounded=0;orthogonalLoop=1;jettySize=auto;html=1;endArrow=none;endFill=0;endSize=7;exitX=0;exitY=0.5;exitDx=0;exitDy=0;" edge="1" parent="1" source="te-tuym6U4XDY3NzMyAo-1" target="te-tuym6U4XDY3NzMyAo-30">
          <mxGeometry relative="1" as="geometry" />
        </mxCell>
        <mxCell id="te-tuym6U4XDY3NzMyAo-77" style="edgeStyle=elbowEdgeStyle;rounded=0;orthogonalLoop=1;jettySize=auto;html=1;exitX=0.5;exitY=0;exitDx=0;exitDy=0;endArrow=none;endFill=0;endSize=7;entryX=0.5;entryY=1;entryDx=0;entryDy=0;" edge="1" parent="1" source="te-tuym6U4XDY3NzMyAo-1" target="te-tuym6U4XDY3NzMyAo-88">
          <mxGeometry relative="1" as="geometry">
            <mxPoint x="440" y="380" as="targetPoint" />
            <Array as="points">
              <mxPoint x="440" y="440" />
            </Array>
          </mxGeometry>
        </mxCell>
        <mxCell id="te-tuym6U4XDY3NzMyAo-203" style="edgeStyle=none;rounded=0;orthogonalLoop=1;jettySize=auto;html=1;exitX=1;exitY=0.5;exitDx=0;exitDy=0;entryX=0.5;entryY=0;entryDx=0;entryDy=0;endArrow=none;endFill=0;endSize=7;" edge="1" parent="1" source="te-tuym6U4XDY3NzMyAo-1" target="te-tuym6U4XDY3NzMyAo-8">
          <mxGeometry relative="1" as="geometry">
            <Array as="points">
              <mxPoint x="685" y="520" />
            </Array>
          </mxGeometry>
        </mxCell>
        <mxCell id="te-tuym6U4XDY3NzMyAo-212" style="edgeStyle=none;rounded=0;orthogonalLoop=1;jettySize=auto;html=1;exitX=0.5;exitY=1;exitDx=0;exitDy=0;entryX=0.5;entryY=0;entryDx=0;entryDy=0;endArrow=none;endFill=0;endSize=7;" edge="1" parent="1" source="te-tuym6U4XDY3NzMyAo-1" target="te-tuym6U4XDY3NzMyAo-199">
          <mxGeometry relative="1" as="geometry" />
        </mxCell>
        <mxCell id="te-tuym6U4XDY3NzMyAo-215" style="edgeStyle=none;rounded=0;orthogonalLoop=1;jettySize=auto;html=1;exitX=0.75;exitY=0;exitDx=0;exitDy=0;entryX=0;entryY=0.5;entryDx=0;entryDy=0;endArrow=none;endFill=0;endSize=7;" edge="1" parent="1" source="te-tuym6U4XDY3NzMyAo-1" target="te-tuym6U4XDY3NzMyAo-214">
          <mxGeometry relative="1" as="geometry">
            <Array as="points">
              <mxPoint x="470" y="388" />
            </Array>
          </mxGeometry>
        </mxCell>
        <mxCell id="te-tuym6U4XDY3NzMyAo-1" value="STATION" style="rounded=0;whiteSpace=wrap;html=1;fillColor=none;" vertex="1" parent="1">
          <mxGeometry x="380" y="490" width="120" height="60" as="geometry" />
        </mxCell>
        <mxCell id="te-tuym6U4XDY3NzMyAo-5" value="Code" style="text;html=1;strokeColor=none;fillColor=none;align=center;verticalAlign=middle;whiteSpace=wrap;rounded=0;" vertex="1" parent="1">
          <mxGeometry x="340" y="442" width="60" height="30" as="geometry" />
        </mxCell>
        <mxCell id="te-tuym6U4XDY3NzMyAo-6" value="Name" style="text;html=1;strokeColor=none;fillColor=none;align=center;verticalAlign=middle;whiteSpace=wrap;rounded=0;" vertex="1" parent="1">
          <mxGeometry x="350" y="587.5" width="60" height="30" as="geometry" />
        </mxCell>
        <mxCell id="te-tuym6U4XDY3NzMyAo-11" value="" style="edgeStyle=none;rounded=0;orthogonalLoop=1;jettySize=auto;html=1;endArrow=none;endFill=0;endSize=7;" edge="1" parent="1" source="te-tuym6U4XDY3NzMyAo-8" target="te-tuym6U4XDY3NzMyAo-10">
          <mxGeometry relative="1" as="geometry" />
        </mxCell>
        <mxCell id="te-tuym6U4XDY3NzMyAo-8" value="CITY_DATA" style="rhombus;whiteSpace=wrap;html=1;rounded=0;fillColor=none;" vertex="1" parent="1">
          <mxGeometry x="635" y="717" width="100" height="60" as="geometry" />
        </mxCell>
        <mxCell id="te-tuym6U4XDY3NzMyAo-14" style="edgeStyle=none;rounded=0;orthogonalLoop=1;jettySize=auto;html=1;exitX=1;exitY=0.25;exitDx=0;exitDy=0;endArrow=oval;endFill=1;endSize=7;entryX=0;entryY=0.5;entryDx=0;entryDy=0;" edge="1" parent="1" source="te-tuym6U4XDY3NzMyAo-10" target="te-tuym6U4XDY3NzMyAo-15">
          <mxGeometry relative="1" as="geometry">
            <mxPoint x="785" y="867" as="targetPoint" />
          </mxGeometry>
        </mxCell>
        <mxCell id="te-tuym6U4XDY3NzMyAo-16" style="edgeStyle=none;rounded=0;orthogonalLoop=1;jettySize=auto;html=1;exitX=1;exitY=0.75;exitDx=0;exitDy=0;endArrow=oval;endFill=0;endSize=7;entryX=0;entryY=0.5;entryDx=0;entryDy=0;" edge="1" parent="1" source="te-tuym6U4XDY3NzMyAo-10" target="te-tuym6U4XDY3NzMyAo-18">
          <mxGeometry relative="1" as="geometry">
            <mxPoint x="775" y="917" as="targetPoint" />
          </mxGeometry>
        </mxCell>
        <mxCell id="te-tuym6U4XDY3NzMyAo-17" style="edgeStyle=none;rounded=0;orthogonalLoop=1;jettySize=auto;html=1;exitX=0.75;exitY=0;exitDx=0;exitDy=0;endArrow=oval;endFill=0;endSize=7;entryX=0;entryY=0.5;entryDx=0;entryDy=0;" edge="1" parent="1" source="te-tuym6U4XDY3NzMyAo-10" target="te-tuym6U4XDY3NzMyAo-19">
          <mxGeometry relative="1" as="geometry">
            <mxPoint x="735" y="827" as="targetPoint" />
          </mxGeometry>
        </mxCell>
        <mxCell id="te-tuym6U4XDY3NzMyAo-10" value="CITY" style="whiteSpace=wrap;html=1;rounded=0;fillColor=none;" vertex="1" parent="1">
          <mxGeometry x="625" y="857" width="120" height="60" as="geometry" />
        </mxCell>
        <mxCell id="te-tuym6U4XDY3NzMyAo-13" style="edgeStyle=none;rounded=0;orthogonalLoop=1;jettySize=auto;html=1;exitX=0;exitY=0.75;exitDx=0;exitDy=0;endArrow=none;endFill=0;endSize=7;" edge="1" parent="1" source="te-tuym6U4XDY3NzMyAo-6" target="te-tuym6U4XDY3NzMyAo-6">
          <mxGeometry relative="1" as="geometry" />
        </mxCell>
        <mxCell id="te-tuym6U4XDY3NzMyAo-15" value="Code" style="text;html=1;strokeColor=none;fillColor=none;align=center;verticalAlign=middle;whiteSpace=wrap;rounded=0;" vertex="1" parent="1">
          <mxGeometry x="780" y="847" width="50" height="30" as="geometry" />
        </mxCell>
        <mxCell id="te-tuym6U4XDY3NzMyAo-18" value="Name" style="text;html=1;strokeColor=none;fillColor=none;align=center;verticalAlign=middle;whiteSpace=wrap;rounded=0;" vertex="1" parent="1">
          <mxGeometry x="775" y="907" width="60" height="30" as="geometry" />
        </mxCell>
        <mxCell id="te-tuym6U4XDY3NzMyAo-19" value="Region" style="text;html=1;strokeColor=none;fillColor=none;align=center;verticalAlign=middle;whiteSpace=wrap;rounded=0;" vertex="1" parent="1">
          <mxGeometry x="735" y="807" width="60" height="30" as="geometry" />
        </mxCell>
        <mxCell id="te-tuym6U4XDY3NzMyAo-25" value="Distance" style="text;html=1;strokeColor=none;fillColor=none;align=center;verticalAlign=middle;whiteSpace=wrap;rounded=0;" vertex="1" parent="1">
          <mxGeometry x="655" y="328" width="60" height="30" as="geometry" />
        </mxCell>
        <mxCell id="te-tuym6U4XDY3NzMyAo-35" value="" style="edgeStyle=elbowEdgeStyle;rounded=0;orthogonalLoop=1;jettySize=auto;html=1;endArrow=none;endFill=0;endSize=7;" edge="1" parent="1" source="te-tuym6U4XDY3NzMyAo-30" target="te-tuym6U4XDY3NzMyAo-34">
          <mxGeometry relative="1" as="geometry" />
        </mxCell>
        <mxCell id="te-tuym6U4XDY3NzMyAo-30" value="FROM" style="rhombus;whiteSpace=wrap;html=1;rounded=0;fillColor=none;" vertex="1" parent="1">
          <mxGeometry x="100" y="487.5" width="100" height="65" as="geometry" />
        </mxCell>
        <mxCell id="te-tuym6U4XDY3NzMyAo-38" style="edgeStyle=none;rounded=0;orthogonalLoop=1;jettySize=auto;html=1;exitX=0.25;exitY=1;exitDx=0;exitDy=0;endArrow=oval;endFill=0;endSize=7;" edge="1" parent="1">
          <mxGeometry relative="1" as="geometry">
            <mxPoint x="100" y="700" as="targetPoint" />
            <mxPoint x="115" y="679.5" as="sourcePoint" />
          </mxGeometry>
        </mxCell>
        <mxCell id="te-tuym6U4XDY3NzMyAo-39" style="edgeStyle=none;rounded=0;orthogonalLoop=1;jettySize=auto;html=1;exitX=1;exitY=0.75;exitDx=0;exitDy=0;endArrow=oval;endFill=0;endSize=7;" edge="1" parent="1" source="te-tuym6U4XDY3NzMyAo-34">
          <mxGeometry relative="1" as="geometry">
            <mxPoint x="240" y="690" as="targetPoint" />
          </mxGeometry>
        </mxCell>
        <mxCell id="te-tuym6U4XDY3NzMyAo-40" style="edgeStyle=none;rounded=0;orthogonalLoop=1;jettySize=auto;html=1;exitX=0.25;exitY=0;exitDx=0;exitDy=0;endArrow=oval;endFill=1;endSize=7;" edge="1" parent="1" source="te-tuym6U4XDY3NzMyAo-34">
          <mxGeometry relative="1" as="geometry">
            <mxPoint x="110" y="600" as="targetPoint" />
          </mxGeometry>
        </mxCell>
        <mxCell id="te-tuym6U4XDY3NzMyAo-51" value="" style="rounded=0;orthogonalLoop=1;jettySize=auto;html=1;endArrow=none;endFill=0;endSize=7;startArrow=none;exitX=1;exitY=0.5;exitDx=0;exitDy=0;" edge="1" parent="1" source="te-tuym6U4XDY3NzMyAo-34" target="te-tuym6U4XDY3NzMyAo-50">
          <mxGeometry relative="1" as="geometry">
            <mxPoint x="240" y="650" as="sourcePoint" />
          </mxGeometry>
        </mxCell>
        <mxCell id="te-tuym6U4XDY3NzMyAo-76" style="edgeStyle=elbowEdgeStyle;rounded=0;orthogonalLoop=1;jettySize=auto;html=1;exitX=0;exitY=0.5;exitDx=0;exitDy=0;entryX=0.5;entryY=1;entryDx=0;entryDy=0;endArrow=none;endFill=0;endSize=7;" edge="1" parent="1" source="te-tuym6U4XDY3NzMyAo-34" target="te-tuym6U4XDY3NzMyAo-75">
          <mxGeometry relative="1" as="geometry">
            <Array as="points">
              <mxPoint x="60" y="570" />
            </Array>
          </mxGeometry>
        </mxCell>
        <mxCell id="te-tuym6U4XDY3NzMyAo-148" value="" style="edgeStyle=none;rounded=0;orthogonalLoop=1;jettySize=auto;html=1;endArrow=none;endFill=0;endSize=7;" edge="1" parent="1" source="te-tuym6U4XDY3NzMyAo-34" target="te-tuym6U4XDY3NzMyAo-147">
          <mxGeometry relative="1" as="geometry" />
        </mxCell>
        <mxCell id="te-tuym6U4XDY3NzMyAo-202" style="edgeStyle=none;rounded=0;orthogonalLoop=1;jettySize=auto;html=1;exitX=0.75;exitY=1;exitDx=0;exitDy=0;entryX=0;entryY=0.5;entryDx=0;entryDy=0;endArrow=none;endFill=0;endSize=7;" edge="1" parent="1" source="te-tuym6U4XDY3NzMyAo-34" target="te-tuym6U4XDY3NzMyAo-199">
          <mxGeometry relative="1" as="geometry">
            <Array as="points">
              <mxPoint x="180" y="770" />
            </Array>
          </mxGeometry>
        </mxCell>
        <mxCell id="te-tuym6U4XDY3NzMyAo-34" value="TRAIN_TIMETABLE" style="whiteSpace=wrap;html=1;rounded=0;fillColor=none;" vertex="1" parent="1">
          <mxGeometry x="90" y="619.5" width="120" height="60" as="geometry" />
        </mxCell>
        <mxCell id="te-tuym6U4XDY3NzMyAo-44" value="Departure-&lt;br&gt;Time" style="text;html=1;strokeColor=none;fillColor=none;align=center;verticalAlign=middle;whiteSpace=wrap;rounded=0;" vertex="1" parent="1">
          <mxGeometry x="70" y="710" width="60" height="25.5" as="geometry" />
        </mxCell>
        <mxCell id="te-tuym6U4XDY3NzMyAo-45" value="ArrivalTime" style="text;html=1;strokeColor=none;fillColor=none;align=center;verticalAlign=middle;whiteSpace=wrap;rounded=0;" vertex="1" parent="1">
          <mxGeometry x="229" y="693" width="60" height="30" as="geometry" />
        </mxCell>
        <mxCell id="te-tuym6U4XDY3NzMyAo-46" value="Number" style="text;html=1;strokeColor=none;fillColor=none;align=center;verticalAlign=middle;whiteSpace=wrap;rounded=0;" vertex="1" parent="1">
          <mxGeometry x="70" y="570" width="60" height="30" as="geometry" />
        </mxCell>
        <mxCell id="te-tuym6U4XDY3NzMyAo-52" style="edgeStyle=elbowEdgeStyle;rounded=0;orthogonalLoop=1;jettySize=auto;html=1;exitX=0.5;exitY=0;exitDx=0;exitDy=0;entryX=0;entryY=0.75;entryDx=0;entryDy=0;endArrow=none;endFill=0;endSize=7;" edge="1" parent="1" source="te-tuym6U4XDY3NzMyAo-50" target="te-tuym6U4XDY3NzMyAo-1">
          <mxGeometry relative="1" as="geometry">
            <Array as="points">
              <mxPoint x="325" y="580" />
            </Array>
          </mxGeometry>
        </mxCell>
        <mxCell id="te-tuym6U4XDY3NzMyAo-50" value="TO" style="rhombus;whiteSpace=wrap;html=1;rounded=0;fillColor=none;" vertex="1" parent="1">
          <mxGeometry x="280" y="619" width="90" height="60.5" as="geometry" />
        </mxCell>
        <mxCell id="te-tuym6U4XDY3NzMyAo-78" style="rounded=0;orthogonalLoop=1;jettySize=auto;html=1;endArrow=oval;endFill=0;endSize=7;exitX=0.75;exitY=0;exitDx=0;exitDy=0;entryX=0.25;entryY=1;entryDx=0;entryDy=0;" edge="1" parent="1" source="te-tuym6U4XDY3NzMyAo-87" target="te-tuym6U4XDY3NzMyAo-84">
          <mxGeometry relative="1" as="geometry">
            <mxPoint x="240" y="165" as="targetPoint" />
            <mxPoint x="190" y="175" as="sourcePoint" />
          </mxGeometry>
        </mxCell>
        <mxCell id="te-tuym6U4XDY3NzMyAo-83" style="edgeStyle=none;rounded=0;orthogonalLoop=1;jettySize=auto;html=1;endArrow=oval;endFill=0;endSize=7;exitX=0.25;exitY=0;exitDx=0;exitDy=0;entryX=0.75;entryY=1;entryDx=0;entryDy=0;" edge="1" parent="1" source="te-tuym6U4XDY3NzMyAo-87" target="te-tuym6U4XDY3NzMyAo-86">
          <mxGeometry relative="1" as="geometry">
            <mxPoint x="135" y="205" as="targetPoint" />
            <mxPoint x="35" y="185" as="sourcePoint" />
          </mxGeometry>
        </mxCell>
        <mxCell id="te-tuym6U4XDY3NzMyAo-90" style="edgeStyle=elbowEdgeStyle;rounded=0;orthogonalLoop=1;jettySize=auto;html=1;exitX=0.5;exitY=0;exitDx=0;exitDy=0;entryX=0;entryY=0.5;entryDx=0;entryDy=0;endArrow=none;endFill=0;endSize=7;" edge="1" parent="1" source="te-tuym6U4XDY3NzMyAo-75" target="te-tuym6U4XDY3NzMyAo-87">
          <mxGeometry relative="1" as="geometry">
            <mxPoint x="60" y="377" as="sourcePoint" />
            <Array as="points">
              <mxPoint x="60" y="345" />
            </Array>
          </mxGeometry>
        </mxCell>
        <mxCell id="te-tuym6U4XDY3NzMyAo-75" value="STOP_TRAIN" style="rhombus;whiteSpace=wrap;html=1;rounded=0;fillColor=none;" vertex="1" parent="1">
          <mxGeometry x="10" y="402" width="100" height="70" as="geometry" />
        </mxCell>
        <mxCell id="te-tuym6U4XDY3NzMyAo-80" style="edgeStyle=none;rounded=0;orthogonalLoop=1;jettySize=auto;html=1;exitX=0;exitY=0;exitDx=0;exitDy=0;endArrow=oval;endFill=0;endSize=7;" edge="1" parent="1">
          <mxGeometry relative="1" as="geometry">
            <mxPoint x="35" y="394.5" as="sourcePoint" />
            <mxPoint x="35" y="394.5" as="targetPoint" />
          </mxGeometry>
        </mxCell>
        <mxCell id="te-tuym6U4XDY3NzMyAo-84" value="Arrival" style="text;html=1;strokeColor=none;fillColor=none;align=center;verticalAlign=middle;whiteSpace=wrap;rounded=0;" vertex="1" parent="1">
          <mxGeometry x="270" y="245" width="60" height="30" as="geometry" />
        </mxCell>
        <mxCell id="te-tuym6U4XDY3NzMyAo-86" value="Departure" style="text;html=1;strokeColor=none;fillColor=none;align=center;verticalAlign=middle;whiteSpace=wrap;rounded=0;" vertex="1" parent="1">
          <mxGeometry x="140" y="245" width="60" height="30" as="geometry" />
        </mxCell>
        <mxCell id="te-tuym6U4XDY3NzMyAo-95" value="" style="edgeStyle=elbowEdgeStyle;rounded=0;orthogonalLoop=1;jettySize=auto;html=1;endArrow=none;endFill=0;endSize=7;" edge="1" parent="1" source="te-tuym6U4XDY3NzMyAo-87" target="te-tuym6U4XDY3NzMyAo-94">
          <mxGeometry relative="1" as="geometry" />
        </mxCell>
        <mxCell id="te-tuym6U4XDY3NzMyAo-87" value="STOPTIME" style="rounded=0;whiteSpace=wrap;html=1;fillColor=none;" vertex="1" parent="1">
          <mxGeometry x="170" y="295" width="120" height="60" as="geometry" />
        </mxCell>
        <mxCell id="te-tuym6U4XDY3NzMyAo-89" value="" style="edgeStyle=none;rounded=0;orthogonalLoop=1;jettySize=auto;html=1;endArrow=none;endFill=0;endSize=7;startArrow=none;" edge="1" parent="1" source="te-tuym6U4XDY3NzMyAo-114" target="te-tuym6U4XDY3NzMyAo-87">
          <mxGeometry relative="1" as="geometry" />
        </mxCell>
        <mxCell id="te-tuym6U4XDY3NzMyAo-88" value="STOP-&lt;br&gt;STATION" style="rhombus;whiteSpace=wrap;html=1;rounded=0;fillColor=none;" vertex="1" parent="1">
          <mxGeometry x="390" y="290" width="100" height="70" as="geometry" />
        </mxCell>
        <mxCell id="te-tuym6U4XDY3NzMyAo-97" value="" style="edgeStyle=elbowEdgeStyle;rounded=0;orthogonalLoop=1;jettySize=auto;html=1;endArrow=none;endFill=0;endSize=7;startArrow=none;" edge="1" parent="1" source="te-tuym6U4XDY3NzMyAo-141" target="te-tuym6U4XDY3NzMyAo-96">
          <mxGeometry relative="1" as="geometry" />
        </mxCell>
        <mxCell id="te-tuym6U4XDY3NzMyAo-94" value="ACTUAL" style="rhombus;whiteSpace=wrap;html=1;rounded=0;fillColor=none;" vertex="1" parent="1">
          <mxGeometry x="180" y="180" width="110" height="70" as="geometry" />
        </mxCell>
        <mxCell id="te-tuym6U4XDY3NzMyAo-100" style="edgeStyle=none;rounded=0;orthogonalLoop=1;jettySize=auto;html=1;exitX=1;exitY=0.25;exitDx=0;exitDy=0;endArrow=oval;endFill=0;endSize=7;" edge="1" parent="1" source="te-tuym6U4XDY3NzMyAo-96">
          <mxGeometry relative="1" as="geometry">
            <mxPoint x="530" y="190" as="targetPoint" />
          </mxGeometry>
        </mxCell>
        <mxCell id="te-tuym6U4XDY3NzMyAo-102" style="edgeStyle=none;rounded=0;orthogonalLoop=1;jettySize=auto;html=1;exitX=1;exitY=0.75;exitDx=0;exitDy=0;endArrow=oval;endFill=0;endSize=7;" edge="1" parent="1" source="te-tuym6U4XDY3NzMyAo-96">
          <mxGeometry relative="1" as="geometry">
            <mxPoint x="530" y="240" as="targetPoint" />
          </mxGeometry>
        </mxCell>
        <mxCell id="te-tuym6U4XDY3NzMyAo-145" style="edgeStyle=none;rounded=0;orthogonalLoop=1;jettySize=auto;html=1;exitX=0;exitY=0.25;exitDx=0;exitDy=0;endArrow=oval;endFill=1;endSize=7;" edge="1" parent="1" source="te-tuym6U4XDY3NzMyAo-96">
          <mxGeometry relative="1" as="geometry">
            <mxPoint x="340" y="190" as="targetPoint" />
          </mxGeometry>
        </mxCell>
        <mxCell id="te-tuym6U4XDY3NzMyAo-96" value="ACTUALSTOP" style="whiteSpace=wrap;html=1;rounded=0;fillColor=none;" vertex="1" parent="1">
          <mxGeometry x="365" y="185" width="120" height="60" as="geometry" />
        </mxCell>
        <mxCell id="te-tuym6U4XDY3NzMyAo-107" value="Arrival" style="text;html=1;strokeColor=none;fillColor=none;align=center;verticalAlign=middle;whiteSpace=wrap;rounded=0;" vertex="1" parent="1">
          <mxGeometry x="535" y="170" width="60" height="30" as="geometry" />
        </mxCell>
        <mxCell id="te-tuym6U4XDY3NzMyAo-108" value="Date" style="text;html=1;strokeColor=none;fillColor=none;align=center;verticalAlign=middle;whiteSpace=wrap;rounded=0;" vertex="1" parent="1">
          <mxGeometry x="289" y="170" width="60" height="30" as="geometry" />
        </mxCell>
        <mxCell id="te-tuym6U4XDY3NzMyAo-109" value="Departure&lt;span style=&quot;color: rgba(0 , 0 , 0 , 0) ; font-family: monospace ; font-size: 0px&quot;&gt;%3CmxGraphModel%3E%3Croot%3E%3CmxCell%20id%3D%220%22%2F%3E%3CmxCell%20id%3D%221%22%20parent%3D%220%22%2F%3E%3CmxCell%20id%3D%222%22%20value%3D%22TrainNumber%22%20style%3D%22text%3Bhtml%3D1%3BstrokeColor%3Dnone%3BfillColor%3Dnone%3Balign%3Dcenter%3BverticalAlign%3Dmiddle%3BwhiteSpace%3Dwrap%3Brounded%3D0%3B%22%20vertex%3D%221%22%20parent%3D%221%22%3E%3CmxGeometry%20x%3D%22350%22%20y%3D%22116%22%20width%3D%2260%22%20height%3D%2230%22%20as%3D%22geometry%22%2F%3E%3C%2FmxCell%3E%3C%2Froot%3E%3C%2FmxGraphModel%3E&lt;/span&gt;" style="text;html=1;strokeColor=none;fillColor=none;align=center;verticalAlign=middle;whiteSpace=wrap;rounded=0;" vertex="1" parent="1">
          <mxGeometry x="535" y="230" width="60" height="30" as="geometry" />
        </mxCell>
        <mxCell id="te-tuym6U4XDY3NzMyAo-113" value="" style="endArrow=none;html=1;rounded=0;endSize=7;startArrow=none;" edge="1" parent="1" source="te-tuym6U4XDY3NzMyAo-119">
          <mxGeometry width="50" height="50" relative="1" as="geometry">
            <mxPoint x="130" y="285" as="sourcePoint" />
            <mxPoint x="330" y="315" as="targetPoint" />
            <Array as="points">
              <mxPoint x="130" y="385" />
              <mxPoint x="230" y="385" />
              <mxPoint x="330" y="385" />
            </Array>
          </mxGeometry>
        </mxCell>
        <mxCell id="te-tuym6U4XDY3NzMyAo-114" value="" style="ellipse;whiteSpace=wrap;html=1;aspect=fixed;fillColor=#000000;" vertex="1" parent="1">
          <mxGeometry x="327" y="322" width="6" height="6" as="geometry" />
        </mxCell>
        <mxCell id="te-tuym6U4XDY3NzMyAo-116" value="" style="edgeStyle=none;rounded=0;orthogonalLoop=1;jettySize=auto;html=1;endArrow=none;endFill=0;endSize=7;" edge="1" parent="1" source="te-tuym6U4XDY3NzMyAo-88" target="te-tuym6U4XDY3NzMyAo-114">
          <mxGeometry relative="1" as="geometry">
            <mxPoint x="390" y="325" as="sourcePoint" />
            <mxPoint x="290" y="325" as="targetPoint" />
          </mxGeometry>
        </mxCell>
        <mxCell id="te-tuym6U4XDY3NzMyAo-117" value="" style="ellipse;whiteSpace=wrap;html=1;aspect=fixed;fillColor=#000000;" vertex="1" parent="1">
          <mxGeometry x="127" y="322" width="6" height="6" as="geometry" />
        </mxCell>
        <mxCell id="te-tuym6U4XDY3NzMyAo-119" value="" style="ellipse;whiteSpace=wrap;html=1;aspect=fixed;fillColor=#000000;" vertex="1" parent="1">
          <mxGeometry x="125" y="280" width="10" height="10" as="geometry" />
        </mxCell>
        <mxCell id="te-tuym6U4XDY3NzMyAo-120" value="" style="endArrow=none;html=1;rounded=0;endSize=7;" edge="1" parent="1" target="te-tuym6U4XDY3NzMyAo-119">
          <mxGeometry width="50" height="50" relative="1" as="geometry">
            <mxPoint x="130" y="285" as="sourcePoint" />
            <mxPoint x="330" y="325" as="targetPoint" />
            <Array as="points" />
          </mxGeometry>
        </mxCell>
        <mxCell id="te-tuym6U4XDY3NzMyAo-140" value="" style="endArrow=none;html=1;rounded=0;endSize=7;startArrow=none;" edge="1" parent="1" source="te-tuym6U4XDY3NzMyAo-143">
          <mxGeometry width="50" height="50" relative="1" as="geometry">
            <mxPoint x="340" y="230" as="sourcePoint" />
            <mxPoint x="340" y="180" as="targetPoint" />
          </mxGeometry>
        </mxCell>
        <mxCell id="te-tuym6U4XDY3NzMyAo-141" value="" style="ellipse;whiteSpace=wrap;html=1;aspect=fixed;fillColor=#000000;" vertex="1" parent="1">
          <mxGeometry x="337" y="212" width="6" height="6" as="geometry" />
        </mxCell>
        <mxCell id="te-tuym6U4XDY3NzMyAo-142" value="" style="edgeStyle=elbowEdgeStyle;rounded=0;orthogonalLoop=1;jettySize=auto;html=1;endArrow=none;endFill=0;endSize=7;" edge="1" parent="1" source="te-tuym6U4XDY3NzMyAo-94" target="te-tuym6U4XDY3NzMyAo-141">
          <mxGeometry relative="1" as="geometry">
            <mxPoint x="290" y="215" as="sourcePoint" />
            <mxPoint x="365" y="215" as="targetPoint" />
          </mxGeometry>
        </mxCell>
        <mxCell id="te-tuym6U4XDY3NzMyAo-143" value="" style="ellipse;whiteSpace=wrap;html=1;aspect=fixed;fillColor=#000000;" vertex="1" parent="1">
          <mxGeometry x="335" y="136" width="10" height="10" as="geometry" />
        </mxCell>
        <mxCell id="te-tuym6U4XDY3NzMyAo-144" value="" style="endArrow=none;html=1;rounded=0;endSize=7;" edge="1" parent="1" target="te-tuym6U4XDY3NzMyAo-143">
          <mxGeometry width="50" height="50" relative="1" as="geometry">
            <mxPoint x="340" y="230" as="sourcePoint" />
            <mxPoint x="340" y="180" as="targetPoint" />
          </mxGeometry>
        </mxCell>
        <mxCell id="te-tuym6U4XDY3NzMyAo-150" value="" style="edgeStyle=none;rounded=0;orthogonalLoop=1;jettySize=auto;html=1;endArrow=none;endFill=0;endSize=7;" edge="1" parent="1" source="te-tuym6U4XDY3NzMyAo-147" target="te-tuym6U4XDY3NzMyAo-149">
          <mxGeometry relative="1" as="geometry" />
        </mxCell>
        <mxCell id="te-tuym6U4XDY3NzMyAo-147" value="ACTUAL" style="rhombus;whiteSpace=wrap;html=1;rounded=0;fillColor=none;" vertex="1" parent="1">
          <mxGeometry x="100" y="770" width="100" height="59.5" as="geometry" />
        </mxCell>
        <mxCell id="te-tuym6U4XDY3NzMyAo-151" style="edgeStyle=none;rounded=0;orthogonalLoop=1;jettySize=auto;html=1;exitX=0.75;exitY=0;exitDx=0;exitDy=0;endArrow=oval;endFill=1;endSize=7;" edge="1" parent="1" source="te-tuym6U4XDY3NzMyAo-149">
          <mxGeometry relative="1" as="geometry">
            <mxPoint x="200" y="880" as="targetPoint" />
          </mxGeometry>
        </mxCell>
        <mxCell id="te-tuym6U4XDY3NzMyAo-157" style="edgeStyle=none;rounded=0;orthogonalLoop=1;jettySize=auto;html=1;exitX=0.75;exitY=1;exitDx=0;exitDy=0;endArrow=oval;endFill=0;endSize=7;" edge="1" parent="1" source="te-tuym6U4XDY3NzMyAo-149">
          <mxGeometry relative="1" as="geometry">
            <mxPoint x="210" y="990" as="targetPoint" />
          </mxGeometry>
        </mxCell>
        <mxCell id="te-tuym6U4XDY3NzMyAo-158" style="edgeStyle=none;rounded=0;orthogonalLoop=1;jettySize=auto;html=1;exitX=0.25;exitY=1;exitDx=0;exitDy=0;endArrow=oval;endFill=0;endSize=7;" edge="1" parent="1" source="te-tuym6U4XDY3NzMyAo-149">
          <mxGeometry relative="1" as="geometry">
            <mxPoint x="100" y="990" as="targetPoint" />
          </mxGeometry>
        </mxCell>
        <mxCell id="te-tuym6U4XDY3NzMyAo-149" value="ACTUALTRAIN" style="whiteSpace=wrap;html=1;rounded=0;fillColor=none;" vertex="1" parent="1">
          <mxGeometry x="90" y="900" width="120" height="60" as="geometry" />
        </mxCell>
        <mxCell id="te-tuym6U4XDY3NzMyAo-152" value="Date" style="text;html=1;strokeColor=none;fillColor=none;align=center;verticalAlign=middle;whiteSpace=wrap;rounded=0;" vertex="1" parent="1">
          <mxGeometry x="190" y="850" width="60" height="30" as="geometry" />
        </mxCell>
        <mxCell id="te-tuym6U4XDY3NzMyAo-153" value="" style="endArrow=none;html=1;rounded=0;endSize=7;startArrow=none;" edge="1" parent="1" source="te-tuym6U4XDY3NzMyAo-154">
          <mxGeometry width="50" height="50" relative="1" as="geometry">
            <mxPoint x="130" y="880" as="sourcePoint" />
            <mxPoint x="260" y="880" as="targetPoint" />
          </mxGeometry>
        </mxCell>
        <mxCell id="te-tuym6U4XDY3NzMyAo-154" value="" style="ellipse;whiteSpace=wrap;html=1;aspect=fixed;fillColor=#000000;" vertex="1" parent="1">
          <mxGeometry x="147" y="877" width="6" height="6" as="geometry" />
        </mxCell>
        <mxCell id="te-tuym6U4XDY3NzMyAo-155" value="" style="endArrow=none;html=1;rounded=0;endSize=7;" edge="1" parent="1" target="te-tuym6U4XDY3NzMyAo-154">
          <mxGeometry width="50" height="50" relative="1" as="geometry">
            <mxPoint x="130" y="880" as="sourcePoint" />
            <mxPoint x="260" y="880" as="targetPoint" />
          </mxGeometry>
        </mxCell>
        <mxCell id="te-tuym6U4XDY3NzMyAo-156" value="" style="ellipse;whiteSpace=wrap;html=1;aspect=fixed;fillColor=#000000;" vertex="1" parent="1">
          <mxGeometry x="260" y="875" width="10" height="10" as="geometry" />
        </mxCell>
        <mxCell id="te-tuym6U4XDY3NzMyAo-159" value="DepartureTime" style="text;html=1;strokeColor=none;fillColor=none;align=center;verticalAlign=middle;whiteSpace=wrap;rounded=0;" vertex="1" parent="1">
          <mxGeometry x="220" y="990" width="60" height="30" as="geometry" />
        </mxCell>
        <mxCell id="te-tuym6U4XDY3NzMyAo-160" value="ArrivalTime" style="text;html=1;strokeColor=none;fillColor=none;align=center;verticalAlign=middle;whiteSpace=wrap;rounded=0;" vertex="1" parent="1">
          <mxGeometry x="73" y="990" width="60" height="30" as="geometry" />
        </mxCell>
        <mxCell id="te-tuym6U4XDY3NzMyAo-184" value="(1,1)" style="text;html=1;strokeColor=none;fillColor=none;align=center;verticalAlign=middle;whiteSpace=wrap;rounded=0;" vertex="1" parent="1">
          <mxGeometry x="675" y="670" width="60" height="30" as="geometry" />
        </mxCell>
        <mxCell id="te-tuym6U4XDY3NzMyAo-188" value="(1,1)" style="text;html=1;strokeColor=none;fillColor=none;align=center;verticalAlign=middle;whiteSpace=wrap;rounded=0;" vertex="1" parent="1">
          <mxGeometry x="140" y="587.5" width="60" height="30" as="geometry" />
        </mxCell>
        <mxCell id="te-tuym6U4XDY3NzMyAo-189" value="(1,1)" style="text;html=1;strokeColor=none;fillColor=none;align=center;verticalAlign=middle;whiteSpace=wrap;rounded=0;" vertex="1" parent="1">
          <mxGeometry x="200" y="622.5" width="60" height="30" as="geometry" />
        </mxCell>
        <mxCell id="te-tuym6U4XDY3NzMyAo-213" style="edgeStyle=none;rounded=0;orthogonalLoop=1;jettySize=auto;html=1;exitX=1;exitY=0.5;exitDx=0;exitDy=0;entryX=1;entryY=0.75;entryDx=0;entryDy=0;endArrow=none;endFill=0;endSize=7;" edge="1" parent="1" source="te-tuym6U4XDY3NzMyAo-199" target="te-tuym6U4XDY3NzMyAo-1">
          <mxGeometry relative="1" as="geometry">
            <Array as="points">
              <mxPoint x="580" y="769" />
              <mxPoint x="580" y="660" />
              <mxPoint x="580" y="535" />
            </Array>
          </mxGeometry>
        </mxCell>
        <mxCell id="te-tuym6U4XDY3NzMyAo-199" value="TRAINROUTE" style="rhombus;whiteSpace=wrap;html=1;rounded=0;fillColor=none;" vertex="1" parent="1">
          <mxGeometry x="385" y="735.5" width="110" height="66" as="geometry" />
        </mxCell>
        <mxCell id="te-tuym6U4XDY3NzMyAo-204" value="(0,N)" style="text;html=1;strokeColor=none;fillColor=none;align=center;verticalAlign=middle;whiteSpace=wrap;rounded=0;" vertex="1" parent="1">
          <mxGeometry x="638" y="817" width="60" height="30" as="geometry" />
        </mxCell>
        <mxCell id="te-tuym6U4XDY3NzMyAo-210" value="(0,N)" style="text;html=1;strokeColor=none;fillColor=none;align=center;verticalAlign=middle;whiteSpace=wrap;rounded=0;" vertex="1" parent="1">
          <mxGeometry x="295" y="492" width="60" height="30" as="geometry" />
        </mxCell>
        <mxCell id="te-tuym6U4XDY3NzMyAo-211" value="(0,N)" style="text;html=1;strokeColor=none;fillColor=none;align=center;verticalAlign=middle;whiteSpace=wrap;rounded=0;" vertex="1" parent="1">
          <mxGeometry x="322" y="529.5" width="60" height="30" as="geometry" />
        </mxCell>
        <mxCell id="te-tuym6U4XDY3NzMyAo-216" style="edgeStyle=none;rounded=0;orthogonalLoop=1;jettySize=auto;html=1;exitX=0.5;exitY=1;exitDx=0;exitDy=0;entryX=1;entryY=0.25;entryDx=0;entryDy=0;endArrow=none;endFill=0;endSize=7;" edge="1" parent="1" source="te-tuym6U4XDY3NzMyAo-214" target="te-tuym6U4XDY3NzMyAo-1">
          <mxGeometry relative="1" as="geometry">
            <Array as="points">
              <mxPoint x="590" y="505" />
            </Array>
          </mxGeometry>
        </mxCell>
        <mxCell id="te-tuym6U4XDY3NzMyAo-217" style="edgeStyle=none;rounded=0;orthogonalLoop=1;jettySize=auto;html=1;exitX=1;exitY=0;exitDx=0;exitDy=0;endArrow=oval;endFill=0;endSize=7;" edge="1" parent="1" source="te-tuym6U4XDY3NzMyAo-214">
          <mxGeometry relative="1" as="geometry">
            <mxPoint x="650" y="350" as="targetPoint" />
          </mxGeometry>
        </mxCell>
        <mxCell id="te-tuym6U4XDY3NzMyAo-214" value="ROUTE" style="rhombus;whiteSpace=wrap;html=1;rounded=0;fillColor=none;" vertex="1" parent="1">
          <mxGeometry x="535" y="355" width="110" height="66" as="geometry" />
        </mxCell>
        <mxCell id="te-tuym6U4XDY3NzMyAo-219" value="(0,N)" style="text;html=1;strokeColor=none;fillColor=none;align=center;verticalAlign=middle;whiteSpace=wrap;rounded=0;" vertex="1" parent="1">
          <mxGeometry x="510" y="480" width="60" height="30" as="geometry" />
        </mxCell>
        <mxCell id="te-tuym6U4XDY3NzMyAo-220" value="(0,N)" style="text;html=1;strokeColor=none;fillColor=none;align=center;verticalAlign=middle;whiteSpace=wrap;rounded=0;" vertex="1" parent="1">
          <mxGeometry x="460" y="442" width="60" height="30" as="geometry" />
        </mxCell>
        <mxCell id="te-tuym6U4XDY3NzMyAo-221" value="(0,N)" style="text;html=1;strokeColor=none;fillColor=none;align=center;verticalAlign=middle;whiteSpace=wrap;rounded=0;" vertex="1" parent="1">
          <mxGeometry x="430" y="700" width="60" height="30" as="geometry" />
        </mxCell>
        <mxCell id="te-tuym6U4XDY3NzMyAo-222" value="(0,N)" style="text;html=1;strokeColor=none;fillColor=none;align=center;verticalAlign=middle;whiteSpace=wrap;rounded=0;" vertex="1" parent="1">
          <mxGeometry x="485" y="770" width="60" height="30" as="geometry" />
        </mxCell>
        <mxCell id="te-tuym6U4XDY3NzMyAo-223" value="(0,N)" style="text;html=1;strokeColor=none;fillColor=none;align=center;verticalAlign=middle;whiteSpace=wrap;rounded=0;" vertex="1" parent="1">
          <mxGeometry x="333" y="770" width="60" height="30" as="geometry" />
        </mxCell>
        <mxCell id="te-tuym6U4XDY3NzMyAo-224" value="(1,1)" style="text;html=1;strokeColor=none;fillColor=none;align=center;verticalAlign=middle;whiteSpace=wrap;rounded=0;" vertex="1" parent="1">
          <mxGeometry x="120" y="322" width="60" height="30" as="geometry" />
        </mxCell>
        <mxCell id="te-tuym6U4XDY3NzMyAo-225" value="(1,1)" style="text;html=1;strokeColor=none;fillColor=none;align=center;verticalAlign=middle;whiteSpace=wrap;rounded=0;" vertex="1" parent="1">
          <mxGeometry x="277" y="322" width="60" height="30" as="geometry" />
        </mxCell>
        <mxCell id="te-tuym6U4XDY3NzMyAo-226" value="(0,N)" style="text;html=1;strokeColor=none;fillColor=none;align=center;verticalAlign=middle;whiteSpace=wrap;rounded=0;" vertex="1" parent="1">
          <mxGeometry x="222" y="260" width="60" height="30" as="geometry" />
        </mxCell>
        <mxCell id="te-tuym6U4XDY3NzMyAo-227" value="(1,1)" style="text;html=1;strokeColor=none;fillColor=none;align=center;verticalAlign=middle;whiteSpace=wrap;rounded=0;" vertex="1" parent="1">
          <mxGeometry x="275" y="188" width="60" height="30" as="geometry" />
        </mxCell>
        <mxCell id="te-tuym6U4XDY3NzMyAo-228" value="(1,1)" style="text;html=1;strokeColor=none;fillColor=none;align=center;verticalAlign=middle;whiteSpace=wrap;rounded=0;" vertex="1" parent="1">
          <mxGeometry x="100" y="837" width="60" height="30" as="geometry" />
        </mxCell>
        <mxCell id="te-tuym6U4XDY3NzMyAo-229" value="(0,N)" style="text;html=1;strokeColor=none;fillColor=none;align=center;verticalAlign=middle;whiteSpace=wrap;rounded=0;" vertex="1" parent="1">
          <mxGeometry x="100" y="735.5" width="60" height="30" as="geometry" />
        </mxCell>
        <mxCell id="te-tuym6U4XDY3NzMyAo-230" value="(0,N)" style="text;html=1;strokeColor=none;fillColor=none;align=center;verticalAlign=middle;whiteSpace=wrap;rounded=0;" vertex="1" parent="1">
          <mxGeometry x="10" y="610" width="60" height="30" as="geometry" />
        </mxCell>
        <mxCell id="te-tuym6U4XDY3NzMyAo-231" value="(0,N)" style="text;html=1;strokeColor=none;fillColor=none;align=center;verticalAlign=middle;whiteSpace=wrap;rounded=0;" vertex="1" parent="1">
          <mxGeometry x="387" y="372" width="60" height="30" as="geometry" />
        </mxCell>
        <mxCell id="te-tuym6U4XDY3NzMyAo-234" value="STOPTIME" style="rounded=0;whiteSpace=wrap;html=1;fillColor=none;" vertex="1" parent="1">
          <mxGeometry x="174" y="299" width="112" height="52" as="geometry" />
        </mxCell>
        <mxCell id="te-tuym6U4XDY3NzMyAo-235" value="" style="rounded=0;whiteSpace=wrap;html=1;fillColor=none;" vertex="1" parent="1">
          <mxGeometry x="369" y="189" width="112" height="52" as="geometry" />
        </mxCell>
        <mxCell id="te-tuym6U4XDY3NzMyAo-236" value="" style="rounded=0;whiteSpace=wrap;html=1;fillColor=none;" vertex="1" parent="1">
          <mxGeometry x="94" y="904" width="112" height="52" as="geometry" />
        </mxCell>
        <mxCell id="te-tuym6U4XDY3NzMyAo-237" value="" style="rhombus;whiteSpace=wrap;html=1;rounded=0;fillColor=none;aspect=fixed;" vertex="1" parent="1">
          <mxGeometry x="105" y="773" width="90" height="53.55" as="geometry" />
        </mxCell>
        <mxCell id="te-tuym6U4XDY3NzMyAo-238" value="" style="rhombus;whiteSpace=wrap;html=1;rounded=0;fillColor=none;aspect=fixed;" vertex="1" parent="1">
          <mxGeometry x="15" y="406" width="90" height="63" as="geometry" />
        </mxCell>
        <mxCell id="te-tuym6U4XDY3NzMyAo-239" value="" style="rhombus;whiteSpace=wrap;html=1;rounded=0;fillColor=none;aspect=fixed;" vertex="1" parent="1">
          <mxGeometry x="396" y="294" width="89" height="62.3" as="geometry" />
        </mxCell>
        <mxCell id="te-tuym6U4XDY3NzMyAo-240" value="" style="rhombus;whiteSpace=wrap;html=1;rounded=0;fillColor=none;aspect=fixed;" vertex="1" parent="1">
          <mxGeometry x="186" y="184" width="99" height="62.96" as="geometry" />
        </mxCell>
      </root>
    </mxGraphModel>
  </diagram>
</mxfile>
